<svg id="ec098c8a-fccf-4ded-8499-a2ef48901bc6" data-name="Laag 1" xmlns="http://www.w3.org/2000/svg" viewBox="0 0 911.574 644.354">
  <title>JF_dotcom</title>
  <rect width="911.574" height="644.354" style="fill: #f4f4f4"/>
  <rect x="84.045" y="196.278" width="743.485" height="289.133" style="fill: #fff"/>
  <line x1="355.071" y1="492.677" x2="355.071" y2="601.677" style="fill: none;stroke: #000;stroke-miterlimit: 10;stroke-width: 2px"/>
  <line x1="828.095" y1="485.924" x2="83.479" y2="485.924" style="fill: none;stroke: #999;stroke-miterlimit: 10;stroke-width: 2.26327102259264px"/>
  <line x1="828.095" y1="195.677" x2="83.479" y2="195.677" style="fill: none;stroke: #999;stroke-miterlimit: 10;stroke-width: 2.26327102259264px"/>
  <path d="M85.176,359.138V344.98h9.053l12.448,14.158,12.448-14.158,9.054,6.435,12.448,7.723,10.184-14.158,13.58,14.158h9.053L179.1,344.98l6.79,6.435,12.448,7.723,6.79-7.723,7.921-6.435,16.975,6.435,11.316-6.435H250.4l5.658,14.158,10.185-14.158,5.658,6.435,9.053-6.435,6.79,14.158,4.527-7.723,4.526-14.158,6.79,10.3H316.03l7.921-10.3,11.317,10.3h12.448l9.053-15.446,6.79-43.764,10.184,20.6,13.58-20.6L398.639,302.5l6.79,16.733,7.922-20.594,7.921-3.862,15.843,20.6,6.79-27.031L457.484,302.5l5.659,16.733,12.448-23.169,9.053,11.585L493.7,333.4l7.921-18.02v-20.6l10.185,3.862,4.527,19.307,7.921,24.456,7.921-24.456V301.216l7.922,21.882,10.185,7.723,9.053-34.754,8.487,3.218,15.843,21.882,11.316-24.456,18.106,32.179,7.922-29.6,7.921,6.436,12.448,25.743,10.185-28.317,3.4,1.287,16.974,27.03,9.053-27.03,9.054,12.872,9.053,20.594L713.8,313.444l19.238,18.02,5.658-21.881,12.448,9.01,9.053,21.882,7.921-29.605,11.317,7.723,12.448,25.743,4.526-19.307,4.527-14.159,13.579,20.594s4.527,15.446,5.659,15.446,7.921-21.881,7.921-21.881" style="fill: none;stroke: #df5b57;stroke-linejoin: round;stroke-width: 3.395px"/>
  <path d="M83.479,421.566l7.921-5.149,7.922,2.575,13.579-5.149,7.922-5.149,13.58,2.575,5.658,3.861,11.316-9.01,13.58,7.723,11.316-5.149,11.316-2.574,7.922,7.723,11.316-5.149,5.658,5.149,20.37-2.574,7.921-3.862,12.448,3.862,9.053-5.149,9.053,5.149,5.659-5.149,6.789,7.723,10.185-7.723,14.711,2.574,24.9,5.149,10.185,3.862,10.185-9.011,2.263,2.575,7.922,57.922h37.344l14.711-3.861,12.448,1.287,12.448-3.862,13.579,6.436,19.238-5.149,13.58,5.149,20.369-5.149s6.79,6.436,7.922,5.149,15.843-2.574,15.843-2.574h21.5l7.921-1.287,11.316,3.861,40.739-2.574,27.16,2.574,10.184-5.149h30.554l29.423,5.149,7.921-5.149,10.185,3.862,9.053-3.862,15.843,1.288H781.7l46.4-1.288" style="fill: none;stroke: #9ececa;stroke-linejoin: round;stroke-width: 3.395px"/>
  <g>
    <path d="M83.258,534.2V524.76l-2.944,1.557-.552-.949,3.591-2.2h1.463l-.095,1.33V534.2h2.3v1.2H80.864v-1.2Z" style="fill: #999"/>
    <path d="M87.837,529.225h4.978v1.253H87.837Z" style="fill: #999"/>
    <path d="M97.394,534.2V524.76l-2.945,1.557-.551-.949,3.591-2.2h1.463l-.095,1.33V534.2h2.3v1.2H95v-1.2Z" style="fill: #999"/>
    <path d="M101.973,529.225h4.978v1.253h-4.978Z" style="fill: #999"/>
    <path d="M108.452,524.646a5.675,5.675,0,0,1,3.951-1.729,2.992,2.992,0,0,1,3.306,3.173,5.434,5.434,0,0,1-1.6,3.571l-3.894,4.5h6.193V535.4h-8.055v-1.083l4.293-5.052c1.1-1.292,1.52-1.863,1.52-3.059a1.869,1.869,0,0,0-2.014-2,4.434,4.434,0,0,0-2.849,1.387Z" style="fill: #999"/>
    <path d="M126.159,529.167c0,4.465-1.463,6.422-4.275,6.422-2.754,0-4.179-1.862-4.179-6.326,0-4.351,1.672-6.346,4.331-6.346C124.563,522.917,126.159,524.608,126.159,529.167Zm-1.5.038c0-3.97-1.083-5.053-2.7-5.053-1.691,0-2.736,1.254-2.736,5.3,0,3.78,1.064,4.921,2.716,4.921C123.518,534.373,124.658,533.29,124.658,529.205Z" style="fill: #999"/>
    <path d="M131.023,534.2V524.76l-2.944,1.557-.552-.949,3.591-2.2h1.463l-.095,1.33V534.2h2.3v1.2h-6.156v-1.2Z" style="fill: #999"/>
    <path d="M135.963,524.646a5.679,5.679,0,0,1,3.952-1.729,2.992,2.992,0,0,1,3.306,3.173,5.434,5.434,0,0,1-1.6,3.571l-3.894,4.5h6.192V535.4h-8.054v-1.083l4.293-5.052c1.1-1.292,1.52-1.863,1.52-3.059a1.869,1.869,0,0,0-2.014-2,4.436,4.436,0,0,0-2.85,1.387Z" style="fill: #999"/>
  </g>
  <g>
    <path d="M751,524.646a5.679,5.679,0,0,1,3.952-1.729,2.991,2.991,0,0,1,3.3,3.173,5.438,5.438,0,0,1-1.6,3.571l-3.895,4.5h6.193V535.4h-8.054v-1.083l4.293-5.052c1.1-1.292,1.52-1.863,1.52-3.059a1.869,1.869,0,0,0-2.013-2,4.429,4.429,0,0,0-2.85,1.387Z" style="fill: #999"/>
    <path d="M766.431,527v4.027h1.823v1.2h-1.823V535.4h-1.5v-3.172h-5.395v-1.178l3.856-8.112,1.2.608-3.572,7.485h3.971v-1.348l.551-2.679Z" style="fill: #999"/>
    <path d="M769.169,529.225h4.976v1.253h-4.976Z" style="fill: #999"/>
    <path d="M782.048,523.867a5.117,5.117,0,0,0-4.559,4.807,5.639,5.639,0,0,1,3.02-.97c2.09,0,3.325,1.463,3.325,3.667,0,2.261-1.33,4.255-3.99,4.255-2.924,0-3.931-2.488-3.931-5.433,0-3.7,1.462-6.687,5.85-7.485Zm-1.9,4.958a4.844,4.844,0,0,0-2.755,1.045c-.114,2.375.551,4.56,2.488,4.56,1.483,0,2.47-1.16,2.47-3.021C782.352,529.89,781.574,528.825,780.149,528.825Z" style="fill: #999"/>
    <path d="M785.451,529.225h4.976v1.253h-4.976Z" style="fill: #999"/>
    <path d="M791.929,524.646a5.678,5.678,0,0,1,3.951-1.729,2.992,2.992,0,0,1,3.306,3.173,5.434,5.434,0,0,1-1.6,3.571l-3.894,4.5h6.193V535.4h-8.054v-1.083l4.293-5.052c1.1-1.292,1.52-1.863,1.52-3.059a1.869,1.869,0,0,0-2.014-2,4.429,4.429,0,0,0-2.849,1.387Z" style="fill: #999"/>
    <path d="M809.636,529.167c0,4.465-1.463,6.422-4.274,6.422-2.755,0-4.18-1.862-4.18-6.326,0-4.351,1.672-6.346,4.332-6.346C808.041,522.917,809.636,524.608,809.636,529.167Zm-1.5.038c0-3.97-1.083-5.053-2.7-5.053-1.69,0-2.735,1.254-2.735,5.3,0,3.78,1.063,4.921,2.716,4.921C807,534.373,808.135,533.29,808.135,529.205Z" style="fill: #999"/>
    <path d="M814.5,534.2V524.76l-2.946,1.557-.551-.949,3.591-2.2h1.463l-.1,1.33V534.2h2.3v1.2h-6.154v-1.2Z" style="fill: #999"/>
    <path d="M819.441,524.646a5.677,5.677,0,0,1,3.951-1.729,2.992,2.992,0,0,1,3.306,3.173,5.434,5.434,0,0,1-1.6,3.571l-3.894,4.5H827.4V535.4h-8.055v-1.083l4.293-5.052c1.1-1.292,1.521-1.863,1.521-3.059a1.869,1.869,0,0,0-2.014-2,4.434,4.434,0,0,0-2.85,1.387Z" style="fill: #999"/>
  </g>
  <g>
    <path d="M649.713,600.285a5.374,5.374,0,0,1-1.683-.238,4.422,4.422,0,0,1-1.168-.551l-.445.57h-.625l.765-3.8h.633a6.953,6.953,0,0,0,.184,1.274,3.181,3.181,0,0,0,.471,1.07,2.238,2.238,0,0,0,.851.762,2.8,2.8,0,0,0,1.295.269,2.648,2.648,0,0,0,1.864-.644,2.274,2.274,0,0,0,.7-1.762,1.949,1.949,0,0,0-.3-1.07,1.918,1.918,0,0,0-.888-.727q-.562-.242-1.112-.433a10.02,10.02,0,0,1-1.081-.449,2.82,2.82,0,0,1-1.131-.965,2.457,2.457,0,0,1-.428-1.418,2.924,2.924,0,0,1,.332-1.383,3.579,3.579,0,0,1,.879-1.094,4.1,4.1,0,0,1,1.285-.711,4.477,4.477,0,0,1,1.5-.265,5.108,5.108,0,0,1,1.316.164,3.779,3.779,0,0,1,1.246.617l.43-.531h.625l-.789,3.679h-.633a11.037,11.037,0,0,0-.121-1.242,3.2,3.2,0,0,0-.331-1.062,1.868,1.868,0,0,0-.718-.723,2.474,2.474,0,0,0-1.224-.262,2.153,2.153,0,0,0-2.168,2.149,1.946,1.946,0,0,0,.229.98,1.679,1.679,0,0,0,.714.652,7.677,7.677,0,0,0,1.08.458,9.256,9.256,0,0,1,1.011.4,4.081,4.081,0,0,1,1.4,1.015,2.178,2.178,0,0,1,.5,1.454,3.411,3.411,0,0,1-.359,1.546,3.589,3.589,0,0,1-.961,1.2,4.66,4.66,0,0,1-1.418.789A5.246,5.246,0,0,1,649.713,600.285Z" style="fill: #999"/>
    <path d="M662.909,595.241a5.736,5.736,0,0,1-.313,1.846,4.886,4.886,0,0,1-.906,1.619,4.616,4.616,0,0,1-1.449,1.153,4.264,4.264,0,0,1-1.965.434,2.794,2.794,0,0,1-2.106-.837,3.1,3.1,0,0,1-.808-2.252,5.414,5.414,0,0,1,1.266-3.519,4.407,4.407,0,0,1,1.449-1.1,4.23,4.23,0,0,1,1.871-.419,2.818,2.818,0,0,1,2.176.849A3.145,3.145,0,0,1,662.909,595.241Zm-1.594-.3a2.88,2.88,0,0,0-.4-1.666,1.309,1.309,0,0,0-1.136-.555,2.1,2.1,0,0,0-1.223.4,3.106,3.106,0,0,0-.988,1.3,6,6,0,0,0-.469,1.514,8.7,8.7,0,0,0-.148,1.537,3.053,3.053,0,0,0,.386,1.693,1.313,1.313,0,0,0,1.168.574,1.906,1.906,0,0,0,1.235-.437,3.324,3.324,0,0,0,.875-1.112,6.08,6.08,0,0,0,.515-1.5A8.452,8.452,0,0,0,661.315,594.944Z" style="fill: #999"/>
    <path d="M668.957,598.965h-.047q-.36.289-.688.531a4.674,4.674,0,0,1-.648.406,3.765,3.765,0,0,1-.681.27,3.144,3.144,0,0,1-.8.082,1.535,1.535,0,0,1-1.164-.434,1.577,1.577,0,0,1-.414-1.136,3.745,3.745,0,0,1,.031-.446c.021-.172.071-.427.148-.765L665.3,595c.052-.228.1-.432.128-.609a2.692,2.692,0,0,0,.051-.508.849.849,0,0,0-.144-.582.858.858,0,0,0-.588-.145,1.938,1.938,0,0,0-.437.066c-.177.044-.314.079-.413.106l.117-.5a9.307,9.307,0,0,1,1.074-.417,2.764,2.764,0,0,1,.746-.141,1.251,1.251,0,0,1,.918.293,1.121,1.121,0,0,1,.293.832,3.117,3.117,0,0,1-.031.382,4.068,4.068,0,0,1-.094.485l-.689,2.89q-.078.329-.129.614a2.806,2.806,0,0,0-.051.433,1.356,1.356,0,0,0,.227.828.833.833,0,0,0,.718.3,2.291,2.291,0,0,0,1.026-.262,4.046,4.046,0,0,0,1.058-.793l1.36-5.882,1.363-.094.094.117-1.162,5.031q-.078.321-.14.645a2.788,2.788,0,0,0-.062.457.761.761,0,0,0,.191.605.983.983,0,0,0,.635.161,2.732,2.732,0,0,0,.422-.047,2.545,2.545,0,0,0,.421-.1l-.118.5q-.648.267-1.082.4a2.758,2.758,0,0,1-.8.132,1.158,1.158,0,0,1-.941-.367A1.29,1.29,0,0,1,668.957,598.965Z" style="fill: #999"/>
    <path d="M680.088,593.441a2.109,2.109,0,0,1-.062.481,1.3,1.3,0,0,1-.18.433,1.164,1.164,0,0,1-.308.325,1.065,1.065,0,0,1-1.114-.1.653.653,0,0,1-.211-.469,1.524,1.524,0,0,1,.118-.543c.078-.2.158-.4.242-.6a1.6,1.6,0,0,0-.309.05,2.647,2.647,0,0,0-.518.2,4.119,4.119,0,0,0-.69.445,6.153,6.153,0,0,0-.822.79l-1.259,5.6h-1.457l1.14-5.069q.038-.187.113-.562a3.247,3.247,0,0,0,.074-.556.592.592,0,0,0-.742-.735,2.11,2.11,0,0,0-.437.058c-.177.039-.315.073-.413.1l.117-.5a8.113,8.113,0,0,1,1.078-.406,3.043,3.043,0,0,1,.805-.133,1.057,1.057,0,0,1,.889.341,1.631,1.631,0,0,1,.266,1.02h.047a15.755,15.755,0,0,1,1.411-1.126,1.778,1.778,0,0,1,1-.321,1.9,1.9,0,0,1,.484.062.969.969,0,0,1,.4.211,1.035,1.035,0,0,1,.253.379A1.819,1.819,0,0,1,680.088,593.441Z" style="fill: #999"/>
    <path d="M683.5,600.277a2.9,2.9,0,0,1-2.16-.8,3.07,3.07,0,0,1-.793-2.267,5.828,5.828,0,0,1,.3-1.873,5.382,5.382,0,0,1,.84-1.591,4.223,4.223,0,0,1,1.363-1.138,3.813,3.813,0,0,1,1.833-.442,2.646,2.646,0,0,1,1.7.473,1.474,1.474,0,0,1,.582,1.191,1.746,1.746,0,0,1-.254.945.839.839,0,0,1-.762.407.868.868,0,0,1-.633-.21.651.651,0,0,1-.211-.468,2.01,2.01,0,0,1,.169-.681c.113-.288.2-.52.269-.7a.573.573,0,0,0-.383-.308,1.967,1.967,0,0,0-.617-.1,2.185,2.185,0,0,0-1.832,1.238,5.638,5.638,0,0,0-.77,3.035,2.834,2.834,0,0,0,.5,1.762,1.6,1.6,0,0,0,1.342.652,2.325,2.325,0,0,0,1.35-.406,4.811,4.811,0,0,0,1.131-1.149l.446.329a4.983,4.983,0,0,1-1.465,1.472A3.433,3.433,0,0,1,683.5,600.277Z" style="fill: #999"/>
    <path d="M694.51,593.8a2.094,2.094,0,0,1-.519,1.424,3.528,3.528,0,0,1-1.512.947,11.49,11.49,0,0,1-1.469.431q-.743.164-1.64.273a3.27,3.27,0,0,0,.457,1.887,1.53,1.53,0,0,0,1.34.652,2.457,2.457,0,0,0,1.378-.391,4.749,4.749,0,0,0,1.176-1.164l.446.329a4.9,4.9,0,0,1-1.563,1.523,3.693,3.693,0,0,1-1.945.57,2.769,2.769,0,0,1-2.114-.774,3.077,3.077,0,0,1-.73-2.2,5.726,5.726,0,0,1,.309-1.881,5.4,5.4,0,0,1,.9-1.638,4.44,4.44,0,0,1,1.418-1.173,3.882,3.882,0,0,1,1.855-.446,2.543,2.543,0,0,1,1.668.458A1.462,1.462,0,0,1,694.51,593.8Zm-1.437-.193a1.109,1.109,0,0,0-.086-.479.645.645,0,0,0-.219-.261.74.74,0,0,0-.3-.117,2.106,2.106,0,0,0-.32-.023,2.215,2.215,0,0,0-1.731,1.029,5.285,5.285,0,0,0-1,2.564c.364-.051.775-.126,1.234-.221a4.629,4.629,0,0,0,1.141-.378,2.346,2.346,0,0,0,.964-.863A2.378,2.378,0,0,0,693.073,593.6Z" style="fill: #999"/>
    <path d="M698.315,599.16a1,1,0,0,1-.316.746,1.074,1.074,0,0,1-1.508,0,1,1,0,0,1-.317-.746,1.071,1.071,0,0,1,2.141,0Zm1.289-5.769a1.008,1.008,0,0,1-.316.747,1.07,1.07,0,0,1-1.508,0,1.009,1.009,0,0,1-.317-.747,1.071,1.071,0,0,1,2.141,0Z" style="fill: #999"/>
    <path d="M714.049,589.41a1.776,1.776,0,0,1,.672.621,1.669,1.669,0,0,1,.242.9,2.663,2.663,0,0,1-.281,1.25,2.844,2.844,0,0,1-.735.9,4.286,4.286,0,0,1-1.044.621,6,6,0,0,1-1.177.363v.07a4.871,4.871,0,0,1,.939.214,3.527,3.527,0,0,1,.876.426,2.191,2.191,0,0,1,.676.708,1.957,1.957,0,0,1,.262,1.028,2.941,2.941,0,0,1-.411,1.559,3.486,3.486,0,0,1-1.036,1.1,4.984,4.984,0,0,1-1.443.668,5.872,5.872,0,0,1-1.584.215h-5.417l.125-.516q.188-.015.563-.066a2.255,2.255,0,0,0,.539-.122.944.944,0,0,0,.418-.3,1.216,1.216,0,0,0,.207-.465l1.859-8.047c.011-.052.02-.1.028-.152a.95.95,0,0,0,.011-.153.577.577,0,0,0-.066-.285.541.541,0,0,0-.23-.207,1.892,1.892,0,0,0-.481-.184,3.148,3.148,0,0,0-.473-.074l.125-.515H712.1a5.275,5.275,0,0,1,1.035.1A3.126,3.126,0,0,1,714.049,589.41Zm-2.166,8.959a3.423,3.423,0,0,0,.509-1.009,3.581,3.581,0,0,0,.173-1.08,1.63,1.63,0,0,0-.564-1.314,2.375,2.375,0,0,0-1.582-.478c-.33,0-.611,0-.846.012l-.532.019-.884,3.825a2.067,2.067,0,0,0-.035.206,1.4,1.4,0,0,0-.012.179.607.607,0,0,0,.415.587,2.67,2.67,0,0,0,1.057.18,2.762,2.762,0,0,0,2.3-1.127Zm.509-5.357a2.728,2.728,0,0,0,.528-.91,3.436,3.436,0,0,0,.161-1.09,1.512,1.512,0,0,0-.15-.7,1.189,1.189,0,0,0-.407-.461,1.728,1.728,0,0,0-.571-.231,3.192,3.192,0,0,0-.658-.066c-.173,0-.365,0-.577.011l-.536.02-.989,4.312h.977a3.317,3.317,0,0,0,1.327-.242A2.384,2.384,0,0,0,712.392,593.012Z" style="fill: #999"/>
    <path d="M719.979,588.082l-2.184,9.406c-.047.2-.091.4-.133.594a2.435,2.435,0,0,0-.063.484.768.768,0,0,0,.2.61,1.016,1.016,0,0,0,.644.164,4.062,4.062,0,0,0,.465-.039,2.388,2.388,0,0,0,.464-.094l-.117.5c-.469.187-.831.32-1.083.4a2.86,2.86,0,0,1-.855.118,1.286,1.286,0,0,1-.949-.325,1.084,1.084,0,0,1-.324-.8,2.062,2.062,0,0,1,.035-.375c.023-.13.055-.294.1-.493l1.9-8.232c.036-.161.06-.273.074-.336a1.18,1.18,0,0,0,.019-.234.834.834,0,0,0-.094-.435.6.6,0,0,0-.267-.23,1.4,1.4,0,0,0-.416-.094c-.167-.016-.337-.033-.51-.055l.11-.476,2.906-.172Z" style="fill: #999"/>
    <path d="M725.277,599.026h-.055c-.114.094-.251.213-.409.356a3.8,3.8,0,0,1-.559.411,3.97,3.97,0,0,1-.663.34,2.074,2.074,0,0,1-.78.144,2.133,2.133,0,0,1-1.774-.813,3.48,3.48,0,0,1-.644-2.221,5.091,5.091,0,0,1,.36-1.885,5.578,5.578,0,0,1,.991-1.641,4.726,4.726,0,0,1,1.428-1.122,3.67,3.67,0,0,1,1.7-.427,3.755,3.755,0,0,1,1.057.148,3.09,3.09,0,0,1,.792.337l1.435-.368.094.117-1.191,5.045q-.063.243-.129.591a3.054,3.054,0,0,0-.066.512.761.761,0,0,0,.187.6,1,1,0,0,0,.634.157,2.73,2.73,0,0,0,.423-.047,2.551,2.551,0,0,0,.423-.1l-.117.5c-.47.188-.821.323-1.05.406a2.477,2.477,0,0,1-.837.125,1.207,1.207,0,0,1-.893-.328A1.244,1.244,0,0,1,725.277,599.026Zm1.126-4.942a2.2,2.2,0,0,0-.055-.493,1.046,1.046,0,0,0-.226-.438,1.084,1.084,0,0,0-.43-.313,1.762,1.762,0,0,0-.689-.117,1.915,1.915,0,0,0-1.109.376,3.838,3.838,0,0,0-.97,1.008,5.29,5.29,0,0,0-.664,1.44A5.826,5.826,0,0,0,722,597.26a5.728,5.728,0,0,0,.054.844,2.165,2.165,0,0,0,.21.672,1.077,1.077,0,0,0,.429.462,1.384,1.384,0,0,0,.71.164,2.007,2.007,0,0,0,.916-.246,4.4,4.4,0,0,0,1.08-.864Z" style="fill: #999"/>
    <path d="M737.378,593.066a.919.919,0,0,1-.271.637.873.873,0,0,1-.669.293,1.864,1.864,0,0,1-.508-.07,3.545,3.545,0,0,1-.548-.211,7.327,7.327,0,0,0-.885.6q-.457.357-1,.862.444,1.157.753,1.895c.207.492.382.9.529,1.208a2.145,2.145,0,0,0,.621.832,1.241,1.241,0,0,0,.746.246,3.285,3.285,0,0,0,.516-.055,3.575,3.575,0,0,0,.507-.116l-.117.511a8.927,8.927,0,0,1-1.142.4,3.548,3.548,0,0,1-.837.1,1.353,1.353,0,0,1-.857-.277,2.652,2.652,0,0,1-.683-1q-.319-.694-.569-1.371t-.491-1.276l-.9.761-.678,3.035H729.44L731.765,590c.037-.161.062-.273.074-.336a1.1,1.1,0,0,0,.02-.234.834.834,0,0,0-.094-.435.588.588,0,0,0-.266-.23,1.407,1.407,0,0,0-.416-.094c-.167-.016-.337-.033-.51-.055l.109-.476,2.907-.172.079.117-1.913,8.133h.032q.883-.952,1.6-1.653t1.511-1.425a5.813,5.813,0,0,1,.891-.707,1.373,1.373,0,0,1,.7-.192.906.906,0,0,1,.64.223A.783.783,0,0,1,737.378,593.066Z" style="fill: #999"/>
    <path d="M744.69,593.8a2.094,2.094,0,0,1-.52,1.424,3.518,3.518,0,0,1-1.511.947,11.538,11.538,0,0,1-1.469.431q-.743.164-1.641.273a3.278,3.278,0,0,0,.457,1.887,1.531,1.531,0,0,0,1.34.652,2.458,2.458,0,0,0,1.379-.391,4.766,4.766,0,0,0,1.176-1.164l.445.329a4.9,4.9,0,0,1-1.562,1.523,3.7,3.7,0,0,1-1.946.57,2.768,2.768,0,0,1-2.113-.774,3.077,3.077,0,0,1-.73-2.2,5.725,5.725,0,0,1,.308-1.881,5.405,5.405,0,0,1,.9-1.638,4.429,4.429,0,0,1,1.418-1.173,3.879,3.879,0,0,1,1.855-.446,2.543,2.543,0,0,1,1.668.458A1.465,1.465,0,0,1,744.69,593.8Zm-1.437-.193a1.124,1.124,0,0,0-.086-.479.645.645,0,0,0-.219-.261.745.745,0,0,0-.3-.117,2.115,2.115,0,0,0-.32-.023,2.213,2.213,0,0,0-1.731,1.029,5.3,5.3,0,0,0-1,2.564c.365-.051.776-.126,1.235-.221a4.606,4.606,0,0,0,1.14-.378,2.342,2.342,0,0,0,.965-.863A2.378,2.378,0,0,0,743.253,593.6Z" style="fill: #999"/>
    <path d="M756.1,593.8a2.1,2.1,0,0,1-.519,1.424,3.528,3.528,0,0,1-1.512.947,11.49,11.49,0,0,1-1.469.431q-.743.164-1.64.273a3.27,3.27,0,0,0,.457,1.887,1.53,1.53,0,0,0,1.34.652,2.457,2.457,0,0,0,1.378-.391,4.766,4.766,0,0,0,1.176-1.164l.446.329a4.9,4.9,0,0,1-1.563,1.523,3.693,3.693,0,0,1-1.945.57,2.769,2.769,0,0,1-2.114-.774,3.077,3.077,0,0,1-.73-2.2,5.7,5.7,0,0,1,.309-1.881,5.4,5.4,0,0,1,.9-1.638,4.44,4.44,0,0,1,1.418-1.173,3.882,3.882,0,0,1,1.855-.446,2.543,2.543,0,0,1,1.668.458A1.462,1.462,0,0,1,756.1,593.8Zm-1.437-.193a1.124,1.124,0,0,0-.086-.479.645.645,0,0,0-.219-.261.74.74,0,0,0-.3-.117,2.106,2.106,0,0,0-.32-.023,2.215,2.215,0,0,0-1.731,1.029,5.285,5.285,0,0,0-1,2.564c.364-.051.775-.126,1.234-.221a4.629,4.629,0,0,0,1.141-.378,2.346,2.346,0,0,0,.964-.863A2.378,2.378,0,0,0,754.659,593.6Z" style="fill: #999"/>
    <path d="M758.776,600.223a1.627,1.627,0,0,1-1.086-.3,1.085,1.085,0,0,1-.344-.863,2.3,2.3,0,0,1,.024-.34c.015-.107.036-.228.062-.364l1.218-5.218h-1.4l.164-.711h1.426l.545-2.289h1.406l-.53,2.289h2.176l-.164.711H760.12l-1.009,4.3c-.047.2-.086.39-.117.575a2.823,2.823,0,0,0-.047.472.821.821,0,0,0,.215.629,1.152,1.152,0,0,0,.778.2,4.406,4.406,0,0,0,.57-.05,2.723,2.723,0,0,0,.571-.129l-.133.57q-.548.212-1.031.363A3.811,3.811,0,0,1,758.776,600.223Z" style="fill: #999"/>
    <path d="M771.253,599.026H771.2c-.114.094-.251.213-.409.356a3.854,3.854,0,0,1-.559.411,4.009,4.009,0,0,1-.663.34,2.074,2.074,0,0,1-.78.144,2.137,2.137,0,0,1-1.775-.813,3.486,3.486,0,0,1-.643-2.221,5.111,5.111,0,0,1,.359-1.885,5.578,5.578,0,0,1,.991-1.641,4.73,4.73,0,0,1,1.429-1.122,3.667,3.667,0,0,1,1.7-.427,3.762,3.762,0,0,1,1.058.148,3.106,3.106,0,0,1,.792.337l1.434-.368.094.117-1.19,5.045q-.063.243-.129.591a3.082,3.082,0,0,0-.067.512.761.761,0,0,0,.188.6,1,1,0,0,0,.634.157,2.72,2.72,0,0,0,.422-.047,2.526,2.526,0,0,0,.423-.1l-.117.5q-.705.282-1.05.406a2.469,2.469,0,0,1-.837.125,1.2,1.2,0,0,1-.892-.328A1.245,1.245,0,0,1,771.253,599.026Zm1.126-4.942a2.2,2.2,0,0,0-.054-.493,1.048,1.048,0,0,0-.227-.438,1.08,1.08,0,0,0-.429-.313,1.766,1.766,0,0,0-.689-.117,1.913,1.913,0,0,0-1.109.376,3.806,3.806,0,0,0-.97,1.008,5.26,5.26,0,0,0-.664,1.44,5.827,5.827,0,0,0-.258,1.713,5.718,5.718,0,0,0,.055.844,2.139,2.139,0,0,0,.21.672,1.075,1.075,0,0,0,.428.462,1.387,1.387,0,0,0,.71.164,2.007,2.007,0,0,0,.916-.246,4.385,4.385,0,0,0,1.08-.864Z" style="fill: #999"/>
    <path d="M779.682,588.082l-2.184,9.406c-.047.2-.091.4-.133.594a2.435,2.435,0,0,0-.063.484.765.765,0,0,0,.2.61,1.011,1.011,0,0,0,.643.164,4.045,4.045,0,0,0,.465-.039,2.388,2.388,0,0,0,.464-.094l-.117.5q-.7.28-1.082.4a2.867,2.867,0,0,1-.856.118,1.286,1.286,0,0,1-.949-.325,1.084,1.084,0,0,1-.324-.8,2.062,2.062,0,0,1,.035-.375c.023-.13.056-.294.1-.493l1.9-8.232c.036-.161.06-.273.074-.336a1.171,1.171,0,0,0,.02-.234.833.833,0,0,0-.1-.435.6.6,0,0,0-.267-.23,1.4,1.4,0,0,0-.416-.094c-.167-.016-.337-.033-.51-.055l.11-.476,2.906-.172Z" style="fill: #999"/>
    <path d="M782.674,599.16a1,1,0,0,1-.316.746,1.074,1.074,0,0,1-1.508,0,1,1,0,0,1-.316-.746,1.07,1.07,0,0,1,2.14,0Z" style="fill: #999"/>
    <path d="M794.831,588.09l-.125.633a3.616,3.616,0,0,0-1.895,1.05,7.634,7.634,0,0,0-1.551,2.356,13.561,13.561,0,0,0-.914,2.984,16.938,16.938,0,0,0-.328,3.219,5.67,5.67,0,0,0,.488,2.523,2.1,2.1,0,0,0,1.582,1.188l-.132.578a3.469,3.469,0,0,1-2.508-1.453,5.692,5.692,0,0,1-.891-3.367,11.717,11.717,0,0,1,1.809-6.621A6.341,6.341,0,0,1,794.831,588.09Z" style="fill: #999"/>
    <path d="M802.128,593.871a2.425,2.425,0,0,1-.422,1.449,3.515,3.515,0,0,1-1.149,1,6.864,6.864,0,0,1-1.269.551q-.725.238-1.59.5a10.25,10.25,0,0,0-1.434.543,3.829,3.829,0,0,0-1.136.785h6.226l-.32,1.36h-7.321l.258-1.063a4.388,4.388,0,0,1,.563-.609,5.593,5.593,0,0,1,.773-.578,9.638,9.638,0,0,1,.871-.477q.481-.234,1.043-.453c.485-.188.907-.371,1.27-.551a5.96,5.96,0,0,0,.918-.551,2.533,2.533,0,0,0,.808-.918,2.643,2.643,0,0,0,.239-1.16,1.714,1.714,0,0,0-.422-1.222,1.436,1.436,0,0,0-1.094-.45,2.443,2.443,0,0,0-1.1.227,1.65,1.65,0,0,0-.632.484c0,.063,0,.152.011.266s.012.253.012.414a1.693,1.693,0,0,1-.273,1.051,1.047,1.047,0,0,1-.875.347.748.748,0,0,1-.6-.2.731.731,0,0,1-.168-.488,1.8,1.8,0,0,1,.285-.934,3.274,3.274,0,0,1,.809-.879,4.155,4.155,0,0,1,1.219-.644,4.668,4.668,0,0,1,1.539-.246,3.319,3.319,0,0,1,2.144.656A2.173,2.173,0,0,1,802.128,593.871Z" style="fill: #999"/>
    <path d="M812.073,594.613a5.921,5.921,0,0,1-.4,2.156,5.719,5.719,0,0,1-1.1,1.8,5.648,5.648,0,0,1-1.672,1.27,4.77,4.77,0,0,1-2.141.465,3.266,3.266,0,0,1-2.445-.9,3.079,3.079,0,0,1-.883-2.25,5.953,5.953,0,0,1,1.547-4.047,5.244,5.244,0,0,1,1.691-1.234,4.889,4.889,0,0,1,2.075-.453,3.075,3.075,0,0,1,3.328,3.187Zm-1.664-.351a2.58,2.58,0,0,0-.473-1.68,1.6,1.6,0,0,0-1.3-.57,2.474,2.474,0,0,0-1.547.527,4.123,4.123,0,0,0-1.156,1.473,8.44,8.44,0,0,0-.836,3.484,2.63,2.63,0,0,0,.453,1.637,1.581,1.581,0,0,0,1.336.59,2.538,2.538,0,0,0,1.493-.481,3.977,3.977,0,0,0,1.195-1.512,7.459,7.459,0,0,0,.637-1.8A8.116,8.116,0,0,0,810.409,594.262Z" style="fill: #999"/>
    <path d="M818.075,591.426c-.111.39-.231.838-.362,1.34s-.219.858-.267,1.066l-1.08,4.672a1.262,1.262,0,0,0-.024.133,1.245,1.245,0,0,0-.007.132.587.587,0,0,0,.093.34.566.566,0,0,0,.227.2,2.384,2.384,0,0,0,.594.148q.438.071.7.086l-.125.516h-5.262l.125-.516q.241-.015.746-.066a5.005,5.005,0,0,0,.707-.106.955.955,0,0,0,.414-.277,1.045,1.045,0,0,0,.266-.5l1.286-5.563h-1.95l.14-.617h.43a4.154,4.154,0,0,0,1.524-.277,3.621,3.621,0,0,0,1.172-.707Z" style="fill: #999"/>
    <path d="M828.057,591.676l-.336,1.375h-4.962l-1.068,3.328a6.361,6.361,0,0,1,1-.492,3.445,3.445,0,0,1,1.3-.235,3.931,3.931,0,0,1,1.023.133,2.9,2.9,0,0,1,.946.461,2.382,2.382,0,0,1,.707.805,2.535,2.535,0,0,1,.269,1.226,4.253,4.253,0,0,1-.4,1.825,4.566,4.566,0,0,1-1.106,1.48,5.384,5.384,0,0,1-1.566.98,4.836,4.836,0,0,1-1.84.348,3.612,3.612,0,0,1-2.051-.547,1.577,1.577,0,0,1-.816-1.328,1.354,1.354,0,0,1,.3-.879.931.931,0,0,1,.754-.371.844.844,0,0,1,.648.215.681.681,0,0,1,.195.465,1.6,1.6,0,0,1-.179.679q-.18.375-.274.563a1.542,1.542,0,0,0,.563.422,2.442,2.442,0,0,0,1.039.18,2.763,2.763,0,0,0,2.125-1.11,4.126,4.126,0,0,0,.945-2.773,2,2,0,0,0-.492-1.391,1.708,1.708,0,0,0-1.336-.547,2.975,2.975,0,0,0-1.379.3,3.762,3.762,0,0,0-1,.73l-.516-.2,1.868-5.64Z" style="fill: #999"/>
    <path d="M833.37,592.91a11.725,11.725,0,0,1-1.809,6.621,6.342,6.342,0,0,1-4.465,3.09l.125-.633a3.608,3.608,0,0,0,1.895-1.051,7.652,7.652,0,0,0,1.551-2.355,14.049,14.049,0,0,0,.91-2.984,16.793,16.793,0,0,0,.332-3.219,5.677,5.677,0,0,0-.489-2.524,2.106,2.106,0,0,0-1.582-1.187l.133-.578a3.469,3.469,0,0,1,2.508,1.453A5.7,5.7,0,0,1,833.37,592.91Z" style="fill: #999"/>
  </g>
  <line x1="83.479" y1="497.293" x2="83.479" y2="485.977" style="fill: none;stroke: #999;stroke-miterlimit: 10;stroke-width: 2.26327102259264px"/>
  <line x1="828.095" y1="497.293" x2="828.095" y2="485.977" style="fill: none;stroke: #999;stroke-miterlimit: 10;stroke-width: 2.26327102259264px"/>
  <circle cx="354.803" cy="486.37" r="6.046" style="fill: #fff;stroke: #000;stroke-miterlimit: 10;stroke-width: 2.79579254716334px"/>
  <rect x="354.787" y="564.677" width="192.717" height="37"/>
  <g>
    <path d="M365.863,592.3l5.062-14.633h2.992l5.171,14.633h-2.86l-1.321-3.873h-5.149l-1.3,3.873Zm4.423-5.9h4.093l-1.98-6.27h-.066Z" style="fill: #fff"/>
    <path d="M386.985,581.168V577.01h2.6v13.135l.2,2.157h-2.244l-.176-1.189-.087-.021a3.527,3.527,0,0,1-2.994,1.54c-3.432,0-4.334-2.685-4.334-5.436,0-3.761,1.936-6.292,5.325-6.292A5.515,5.515,0,0,1,386.985,581.168Zm0,2a4.09,4.09,0,0,0-1.65-.352c-2.091,0-2.795,1.981-2.795,4.137,0,2,.484,3.74,2.267,3.74a2.037,2.037,0,0,0,2.178-1.826Z" style="fill: #fff"/>
    <path d="M400.713,581.234a18.5,18.5,0,0,1,.726,4.84c0,4.049-1.783,6.535-5.281,6.535-2.6,0-3.85-1.21-3.85-3.916v-7.459h2.64v6.931c0,1.342.088,2.4,1.5,2.4,1.848,0,2.42-2.2,2.42-4.312a20.727,20.727,0,0,0-.748-5.017Z" style="fill: #fff"/>
    <path d="M412.043,583.962c0,3.389-4.2,3.829-6.227,3.85a2.713,2.713,0,0,0,2.772,2.817,4.736,4.736,0,0,0,2.772-.968l.815,1.738a6.4,6.4,0,0,1-3.873,1.233c-3.63,0-5.126-2.333-5.126-5.633,0-3.234,1.87-6.1,5.368-6.1C410.7,580.9,412.043,582,412.043,583.962Zm-3.652-1.188c-1.761,0-2.6,1.716-2.663,3.344,1.188.023,3.982-.351,3.982-2.046A1.218,1.218,0,0,0,408.391,582.774Z" style="fill: #fff"/>
    <path d="M416.574,592.3h-2.618v-9.285l-.2-1.783h2.156l.264,1.606a2.875,2.875,0,0,1,2.662-1.936,3.487,3.487,0,0,1,1.761.44l-.462,2.222a3.214,3.214,0,0,0-1.563-.44,2.067,2.067,0,0,0-2,2.223Z" style="fill: #fff"/>
    <path d="M424.582,577.01v4.224h2.97v2.046h-2.97v5.589c0,1.342.527,1.738,1.43,1.738a2.934,2.934,0,0,0,1.5-.462l.66,1.7a5.223,5.223,0,0,1-2.794.769c-3.433,0-3.411-2.112-3.411-3.652V577.01Z" style="fill: #fff"/>
    <path d="M431.006,576.591a1.458,1.458,0,0,1,1.518,1.474,1.441,1.441,0,0,1-1.518,1.453,1.417,1.417,0,0,1-1.519-1.453A1.458,1.458,0,0,1,431.006,576.591Zm-1.3,15.711V581.234h2.618V592.3Z" style="fill: #fff"/>
    <path d="M434.855,589.639A6.587,6.587,0,0,0,438,590.7c.925,0,1.673-.418,1.673-1.408s-.837-1.3-1.871-1.606c-1.606-.462-3.41-.991-3.41-3.279s1.892-3.5,4.026-3.5a5.662,5.662,0,0,1,3.982,1.562l-1.253,1.54a4.225,4.225,0,0,0-2.685-1.188c-.792,0-1.54.4-1.54,1.277,0,1.011.924,1.3,1.958,1.605,1.606.507,3.389,1.145,3.389,3.411,0,2.288-1.695,3.521-4.159,3.521a7.326,7.326,0,0,1-4.026-1.122Z" style="fill: #fff"/>
    <path d="M445.591,576.591a1.458,1.458,0,0,1,1.518,1.474,1.441,1.441,0,0,1-1.518,1.453,1.417,1.417,0,0,1-1.519-1.453A1.458,1.458,0,0,1,445.591,576.591Zm-1.3,15.711V581.234h2.618V592.3Z" style="fill: #fff"/>
    <path d="M449.639,592.3v-9.154l-.176-1.914h2.2l.22,1.386a3.966,3.966,0,0,1,3.388-1.716c2.2,0,3.5,1.232,3.5,3.828v7.57h-2.618v-7c0-1.343-.242-2.377-1.65-2.377a2.234,2.234,0,0,0-2.244,2.222V592.3Z" style="fill: #fff"/>
    <path d="M461.936,595.162a4.7,4.7,0,0,1,2.442-3.917c-1.847-.264-3.52-1.606-3.52-4.73,0-3.741,2.354-5.611,5.435-5.611a11.921,11.921,0,0,1,4.268.814V590.1c0,.769,0,2.023-.065,2.816-.265,3.234-1.761,5.192-4.864,5.192C463.19,598.11,461.936,596.988,461.936,595.162Zm6.007-12.08a5.163,5.163,0,0,0-1.694-.264c-1.827,0-2.773,1.452-2.773,3.521,0,1.65.242,3.5,2.355,3.5a2.044,2.044,0,0,0,2.112-2.156Zm-2.09,13.114c1.716,0,2.112-1.629,2.112-3.894v-1.431c-2.354,1.189-3.63,2.442-3.63,3.873A1.33,1.33,0,0,0,465.853,596.2Z" style="fill: #fff"/>
    <path d="M485.234,589.573l.99,1.76a6.074,6.074,0,0,1-3.828,1.276c-3.234,0-5.1-2.046-5.1-5.787,0-4.422,2.75-5.918,5.082-5.918a4.794,4.794,0,0,1,4.048,2.09l-1.65,1.364a3.167,3.167,0,0,0-2.354-1.364c-1.474,0-2.508,1.21-2.508,3.719,0,2.288.836,3.806,2.794,3.806A4.124,4.124,0,0,0,485.234,589.573Z" style="fill: #fff"/>
    <path d="M495.729,583.962c0,3.389-4.2,3.829-6.227,3.85a2.713,2.713,0,0,0,2.772,2.817,4.736,4.736,0,0,0,2.772-.968l.815,1.738a6.4,6.4,0,0,1-3.873,1.233c-3.63,0-5.126-2.333-5.126-5.633,0-3.234,1.87-6.1,5.368-6.1C494.386,580.9,495.729,582,495.729,583.962Zm-3.652-1.188c-1.761,0-2.6,1.716-2.663,3.344,1.188.023,3.982-.351,3.982-2.046A1.218,1.218,0,0,0,492.077,582.774Z" style="fill: #fff"/>
    <path d="M506.663,590.189l.2,2.113h-2.267l-.153-1.166-.088-.023a3.56,3.56,0,0,1-3.015,1.475c-3.1,0-4.312-2.2-4.312-5.347,0-3.873,1.936-6.337,5.721-6.337a12.4,12.4,0,0,1,3.916.77Zm-2.6-7.085a4.367,4.367,0,0,0-1.65-.286c-2.091,0-2.795,1.958-2.795,4.334,0,1.827.44,3.565,2.289,3.565a2.008,2.008,0,0,0,2.156-1.914Z" style="fill: #fff"/>
    <path d="M509.235,589.639a6.591,6.591,0,0,0,3.146,1.056c.925,0,1.673-.418,1.673-1.408s-.837-1.3-1.871-1.606c-1.605-.462-3.41-.991-3.41-3.279s1.893-3.5,4.026-3.5a5.664,5.664,0,0,1,3.983,1.562l-1.254,1.54a4.225,4.225,0,0,0-2.685-1.188c-.792,0-1.54.4-1.54,1.277,0,1.011.924,1.3,1.958,1.605,1.607.507,3.389,1.145,3.389,3.411,0,2.288-1.694,3.521-4.158,3.521a7.33,7.33,0,0,1-4.027-1.122Z" style="fill: #fff"/>
    <path d="M526.814,583.962c0,3.389-4.2,3.829-6.227,3.85a2.713,2.713,0,0,0,2.772,2.817,4.736,4.736,0,0,0,2.772-.968l.815,1.738a6.4,6.4,0,0,1-3.873,1.233c-3.63,0-5.126-2.333-5.126-5.633,0-3.234,1.87-6.1,5.368-6.1C525.471,580.9,526.814,582,526.814,583.962Zm-3.652-1.188c-1.761,0-2.6,1.716-2.663,3.344,1.188.023,3.982-.351,3.982-2.046A1.218,1.218,0,0,0,523.162,582.774Z" style="fill: #fff"/>
    <path d="M528.506,589.639a6.6,6.6,0,0,0,3.147,1.056c.925,0,1.673-.418,1.673-1.408s-.837-1.3-1.871-1.606c-1.606-.462-3.41-.991-3.41-3.279s1.892-3.5,4.026-3.5a5.662,5.662,0,0,1,3.982,1.562l-1.254,1.54a4.223,4.223,0,0,0-2.684-1.188c-.792,0-1.54.4-1.54,1.277,0,1.011.924,1.3,1.958,1.605,1.606.507,3.388,1.145,3.388,3.411,0,2.288-1.694,3.521-4.158,3.521a7.326,7.326,0,0,1-4.026-1.122Z" style="fill: #fff"/>
  </g>
  <g>
    <path d="M94.02,71.915h-.091L90.839,84.9H86.67L82.29,64.955h3.66l3.09,14.879h.12l3.059-13.289H95.94l3.119,13.319h.06L102,64.955h3.6L101.309,84.9h-4.08Z"/>
    <path d="M107.909,84.9V64.055h3.57v7.02a5.287,5.287,0,0,1,4.05-1.71c3.15,0,4.83,1.74,4.83,5.279V84.9h-3.57V75.275c0-1.74-.36-3.15-2.31-3.15a3.022,3.022,0,0,0-3,2.97V84.9Z"/>
    <path d="M136.379,82.024l.27,2.88h-3.09l-.21-1.59-.12-.03a4.85,4.85,0,0,1-4.11,2.01c-4.23,0-5.88-3-5.88-7.29,0-5.279,2.64-8.639,7.8-8.639a16.9,16.9,0,0,1,5.34,1.05Zm-3.54-9.659a5.949,5.949,0,0,0-2.25-.39c-2.85,0-3.81,2.669-3.81,5.91,0,2.489.6,4.859,3.12,4.859a2.738,2.738,0,0,0,2.94-2.61Z"/>
    <path d="M143.7,64.055v5.76h4.05v2.79H143.7v7.62c0,1.829.72,2.369,1.95,2.369a4,4,0,0,0,2.04-.63l.9,2.31a7.117,7.117,0,0,1-3.81,1.05c-4.679,0-4.649-2.88-4.649-4.979V64.055Z"/>
    <path d="M160.5,64.055v5.76h4.049v2.79H160.5v7.62c0,1.829.719,2.369,1.949,2.369a4,4,0,0,0,2.04-.63l.9,2.31a7.122,7.122,0,0,1-3.81,1.05c-4.679,0-4.649-2.88-4.649-4.979V64.055Z"/>
    <path d="M167.338,84.9V64.055h3.57v7.02a5.287,5.287,0,0,1,4.05-1.71c3.149,0,4.83,1.74,4.83,5.279V84.9h-3.57V75.275c0-1.74-.361-3.15-2.31-3.15a3.022,3.022,0,0,0-3,2.97V84.9Z"/>
    <path d="M194.758,73.535c0,4.62-5.73,5.219-8.49,5.25.12,1.949,1.23,3.839,3.78,3.839a6.475,6.475,0,0,0,3.78-1.319l1.11,2.369a8.719,8.719,0,0,1-5.28,1.68c-4.95,0-6.99-3.18-6.99-7.679,0-4.41,2.55-8.31,7.32-8.31C192.928,69.365,194.758,70.865,194.758,73.535Zm-4.98-1.62c-2.4,0-3.54,2.34-3.63,4.56,1.62.03,5.43-.48,5.43-2.79A1.662,1.662,0,0,0,189.778,71.915Z"/>
    <path d="M215.967,82.024l.27,2.88h-3.089l-.21-1.59-.121-.03a4.849,4.849,0,0,1-4.109,2.01c-4.23,0-5.88-3-5.88-7.29,0-5.279,2.64-8.639,7.8-8.639a16.9,16.9,0,0,1,5.339,1.05Zm-3.54-9.659a5.945,5.945,0,0,0-2.25-.39c-2.849,0-3.809,2.669-3.809,5.91,0,2.489.6,4.859,3.119,4.859a2.738,2.738,0,0,0,2.94-2.61Z"/>
    <path d="M228.537,69.725v-5.67h3.54V81.964l.27,2.94h-3.06l-.24-1.62-.12-.03a4.8,4.8,0,0,1-4.08,2.1c-4.68,0-5.91-3.66-5.91-7.41,0-5.129,2.64-8.579,7.26-8.579A7.521,7.521,0,0,1,228.537,69.725Zm0,2.73a5.577,5.577,0,0,0-2.25-.48c-2.85,0-3.81,2.7-3.81,5.64,0,2.73.66,5.1,3.09,5.1a2.777,2.777,0,0,0,2.97-2.489Z"/>
    <path d="M241.886,81.274a9,9,0,0,0,4.29,1.44c1.26,0,2.28-.57,2.28-1.92s-1.14-1.77-2.55-2.19c-2.19-.629-4.65-1.35-4.65-4.469s2.58-4.77,5.49-4.77a7.729,7.729,0,0,1,5.43,2.13l-1.71,2.1a5.762,5.762,0,0,0-3.66-1.62c-1.08,0-2.1.54-2.1,1.74,0,1.38,1.26,1.77,2.67,2.19,2.19.69,4.62,1.56,4.62,4.65,0,3.119-2.31,4.8-5.67,4.8a9.975,9.975,0,0,1-5.489-1.53Z"/>
    <path d="M258.266,64.055v5.76h4.05v2.79h-4.05v7.62c0,1.829.72,2.369,1.95,2.369a4,4,0,0,0,2.04-.63l.9,2.31a7.122,7.122,0,0,1-3.81,1.05c-4.68,0-4.65-2.88-4.65-4.979V64.055Z"/>
    <path d="M270.776,69.365c2.22,0,6.54.69,6.54,7.59,0,5.759-3.061,8.4-7.02,8.4-4.02,0-6.51-2.58-6.51-8.009C263.786,71.105,267.686,69.365,270.776,69.365Zm2.88,8.07c0-3.36-.78-5.43-3.06-5.43-2.19,0-3.18,2.04-3.18,4.92,0,2.789.45,5.789,3.12,5.789C272.726,82.714,273.656,80.555,273.656,77.435Z"/>
    <path d="M283.736,91.2h-3.57V70.355a21.755,21.755,0,0,1,6-.99c4.8,0,7.049,2.67,7.049,7.86,0,5.279-2.429,8.129-6.359,8.129a6.253,6.253,0,0,1-3.12-.87Zm1.77-18.989a7.665,7.665,0,0,0-1.77.21v9.239a4.9,4.9,0,0,0,2.55.75c2.55,0,3.33-2.52,3.33-4.919C289.616,73.985,288.266,72.215,285.506,72.215Z"/>
    <path d="M314.875,82.024l.27,2.88h-3.09l-.21-1.59-.12-.03a4.85,4.85,0,0,1-4.11,2.01c-4.23,0-5.88-3-5.88-7.29,0-5.279,2.641-8.639,7.8-8.639a16.9,16.9,0,0,1,5.34,1.05Zm-3.54-9.659a5.949,5.949,0,0,0-2.25-.39c-2.85,0-3.81,2.669-3.81,5.91,0,2.489.6,4.859,3.12,4.859a2.738,2.738,0,0,0,2.94-2.61Z"/>
    <path d="M322.2,64.055v5.76h4.05v2.79H322.2v7.62c0,1.829.72,2.369,1.95,2.369a4,4,0,0,0,2.04-.63l.9,2.31a7.122,7.122,0,0,1-3.81,1.05c-4.68,0-4.649-2.88-4.649-4.979V64.055Z"/>
    <path d="M346.734,73.535c0,4.62-5.73,5.219-8.489,5.25.119,1.949,1.23,3.839,3.779,3.839a6.47,6.47,0,0,0,3.78-1.319l1.11,2.369a8.719,8.719,0,0,1-5.28,1.68c-4.949,0-6.989-3.18-6.989-7.679,0-4.41,2.549-8.31,7.319-8.31C344.9,69.365,346.734,70.865,346.734,73.535Zm-4.98-1.62c-2.4,0-3.54,2.34-3.629,4.56,1.62.03,5.429-.48,5.429-2.79A1.662,1.662,0,0,0,341.754,71.915Z"/>
    <path d="M356.244,64.955c3.39,0,6.48,1.02,6.48,5.01a4.621,4.621,0,0,1-2.76,4.2,4.62,4.62,0,0,1,3.78,4.771c0,3.9-2.7,5.969-7.68,5.969H349.5V64.955Zm-3.09,8.189h2.22c2.58,0,3.63-1.2,3.63-2.789,0-2.16-1.47-2.64-3.42-2.64h-2.43Zm0,8.94h2.82c2.94,0,3.9-1.35,3.9-3.18,0-2.01-1.38-3.09-3.75-3.09h-2.97Z"/>
    <path d="M379.044,82.024l.27,2.88h-3.09l-.21-1.59-.12-.03a4.851,4.851,0,0,1-4.11,2.01c-4.23,0-5.88-3-5.88-7.29,0-5.279,2.64-8.639,7.8-8.639a16.912,16.912,0,0,1,5.34,1.05ZM375.5,72.365a5.941,5.941,0,0,0-2.25-.39c-2.849,0-3.809,2.669-3.809,5.91,0,2.489.6,4.859,3.12,4.859a2.737,2.737,0,0,0,2.939-2.61Z"/>
    <path d="M394.943,87.184c-.57,3.6-2.73,5.7-6.48,5.7-3.239,0-4.859-1.53-4.859-3.93a6.5,6.5,0,0,1,3.149-5.13c-2.459-.36-3.989-1.86-3.989-4.86V69.815h3.57v8.519c0,1.951.18,3.391,2.549,3.391a2.466,2.466,0,0,0,2.761-2.641V69.815h3.539v13.2A37.139,37.139,0,0,1,394.943,87.184Zm-6.06,3.12c2.1,0,2.79-1.95,2.79-4.65v-2.52c-2.639,1.26-4.8,2.73-4.8,5.25A1.779,1.779,0,0,0,388.883,90.3Z"/>
    <path d="M417.533,82.024l.27,2.88h-3.09l-.21-1.59-.12-.03a4.85,4.85,0,0,1-4.11,2.01c-4.23,0-5.88-3-5.88-7.29,0-5.279,2.64-8.639,7.8-8.639a16.9,16.9,0,0,1,5.34,1.05Zm-3.54-9.659a5.949,5.949,0,0,0-2.25-.39c-2.85,0-3.81,2.669-3.81,5.91,0,2.489.6,4.859,3.12,4.859a2.738,2.738,0,0,0,2.94-2.61Z"/>
    <path d="M431.333,81.185l1.35,2.4a8.285,8.285,0,0,1-5.22,1.74c-4.41,0-6.96-2.79-6.96-7.889,0-6.03,3.75-8.07,6.93-8.07a6.538,6.538,0,0,1,5.52,2.85l-2.25,1.86a4.319,4.319,0,0,0-3.21-1.86c-2.01,0-3.42,1.65-3.42,5.07,0,3.119,1.14,5.19,3.81,5.19A5.632,5.632,0,0,0,431.333,81.185Z"/>
    <path d="M444.382,81.185l1.35,2.4a8.282,8.282,0,0,1-5.219,1.74c-4.41,0-6.96-2.79-6.96-7.889,0-6.03,3.75-8.07,6.929-8.07A6.539,6.539,0,0,1,446,72.215l-2.25,1.86a4.319,4.319,0,0,0-3.21-1.86c-2.01,0-3.42,1.65-3.42,5.07,0,3.119,1.14,5.19,3.81,5.19A5.629,5.629,0,0,0,444.382,81.185Z"/>
    <path d="M453.562,69.365c2.22,0,6.54.69,6.54,7.59,0,5.759-3.06,8.4-7.019,8.4-4.02,0-6.51-2.58-6.51-8.009C446.573,71.105,450.473,69.365,453.562,69.365Zm2.88,8.07c0-3.36-.78-5.43-3.06-5.43-2.19,0-3.179,2.04-3.179,4.92,0,2.789.449,5.789,3.119,5.789C455.512,82.714,456.442,80.555,456.442,77.435Z"/>
    <path d="M463.043,84.9V72.425l-.271-2.61h2.97l.3,1.89a4.98,4.98,0,0,1,4.349-2.34,4.268,4.268,0,0,1,4.17,2.4,4.853,4.853,0,0,1,4.38-2.4c3.029,0,4.77,1.77,4.77,5.31V84.9h-3.571v-9.51c0-1.769-.3-3.269-2.279-3.269a2.765,2.765,0,0,0-2.7,2.939V84.9h-3.57v-9.51c0-1.619-.21-3.269-2.28-3.269a2.817,2.817,0,0,0-2.7,3.06V84.9Z"/>
    <path d="M490.942,91.2h-3.569V70.355a21.743,21.743,0,0,1,6-.99c4.8,0,7.049,2.67,7.049,7.86,0,5.279-2.429,8.129-6.359,8.129a6.253,6.253,0,0,1-3.12-.87Zm1.77-18.989a7.665,7.665,0,0,0-1.77.21v9.239a4.9,4.9,0,0,0,2.55.75c2.55,0,3.33-2.52,3.33-4.919C496.822,73.985,495.472,72.215,492.712,72.215Z"/>
    <path d="M506.992,64.085v15.9c0,1.86.389,2.55,1.62,2.55a5.025,5.025,0,0,0,1.89-.48l.78,2.4a7.468,7.468,0,0,1-3.57.9c-4.05,0-4.291-2.37-4.291-4.62V64.085Z"/>
    <path d="M514.941,63.485a1.988,1.988,0,0,1,2.07,2.01,1.964,1.964,0,0,1-2.07,1.98,1.93,1.93,0,0,1-2.069-1.98A1.987,1.987,0,0,1,514.941,63.485ZM513.171,84.9V69.815h3.57V84.9Z"/>
    <path d="M520.192,81.274a8.993,8.993,0,0,0,4.289,1.44c1.261,0,2.28-.57,2.28-1.92s-1.139-1.77-2.549-2.19c-2.191-.629-4.651-1.35-4.651-4.469s2.58-4.77,5.49-4.77a7.727,7.727,0,0,1,5.43,2.13l-1.71,2.1a5.759,5.759,0,0,0-3.66-1.62c-1.079,0-2.1.54-2.1,1.74,0,1.38,1.26,1.77,2.67,2.19,2.191.69,4.62,1.56,4.62,4.65,0,3.119-2.31,4.8-5.67,4.8a9.982,9.982,0,0,1-5.49-1.53Z"/>
    <path d="M532.911,84.9V64.055h3.57v7.02a5.287,5.287,0,0,1,4.05-1.71c3.149,0,4.829,1.74,4.829,5.279V84.9h-3.569V75.275c0-1.74-.361-3.15-2.31-3.15a3.022,3.022,0,0,0-3,2.97V84.9Z"/>
    <path d="M560.33,73.535c0,4.62-5.73,5.219-8.49,5.25.121,1.949,1.23,3.839,3.78,3.839a6.473,6.473,0,0,0,3.78-1.319l1.11,2.369a8.719,8.719,0,0,1-5.28,1.68c-4.95,0-6.989-3.18-6.989-7.679,0-4.41,2.55-8.31,7.319-8.31C558.5,69.365,560.33,70.865,560.33,73.535Zm-4.98-1.62c-2.4,0-3.54,2.34-3.63,4.56,1.62.03,5.43-.48,5.43-2.79A1.662,1.662,0,0,0,555.35,71.915Z"/>
    <path d="M571.7,69.725v-5.67h3.539V81.964l.27,2.94h-3.059l-.24-1.62-.121-.03a4.8,4.8,0,0,1-4.08,2.1c-4.679,0-5.909-3.66-5.909-7.41,0-5.129,2.64-8.579,7.26-8.579A7.526,7.526,0,0,1,571.7,69.725Zm0,2.73a5.581,5.581,0,0,0-2.25-.48c-2.851,0-3.811,2.7-3.811,5.64,0,2.73.66,5.1,3.09,5.1a2.778,2.778,0,0,0,2.971-2.489Z"/>
    <path d="M582.08,66.875a11.086,11.086,0,0,0-3.45.81l-.6-2.76a12.434,12.434,0,0,1,4.29-.87c3.63,0,5.07,1.89,5.07,4.53,0,2.76-1.44,3.99-3.21,5.309-1.051.75-1.59,1.111-1.59,2.311v3.3h-2.76c-.06-.6-.21-2.4-.21-3.15a4.586,4.586,0,0,1,2.31-4.5c1.08-.84,2.1-1.41,2.1-3.03A1.811,1.811,0,0,0,582.08,66.875Zm-.99,14.549a1.918,1.918,0,0,1,2.1,1.95,2.057,2.057,0,1,1-2.1-1.95Z"/>
    <path d="M595.251,84.9l6.9-19.949h4.08L613.28,84.9h-3.9l-1.8-5.28h-7.02l-1.77,5.28Zm6.029-8.039h5.58l-2.7-8.55h-.09Z"/>
    <path d="M615.53,64.055h3.57v6.57a5.242,5.242,0,0,1,3.54-1.26c3.72,0,5.97,2.58,5.97,7.259,0,5.851-2.58,8.73-7.11,8.73a14.184,14.184,0,0,1-5.97-1.29Zm3.57,18.15a5.926,5.926,0,0,0,2.55.6c2.1,0,3.42-1.59,3.42-5.7,0-2.339-.57-5.129-3.36-5.129a2.417,2.417,0,0,0-2.61,2.25Z"/>
    <path d="M631.31,81.274a8.993,8.993,0,0,0,4.289,1.44c1.26,0,2.28-.57,2.28-1.92s-1.139-1.77-2.549-2.19c-2.191-.629-4.651-1.35-4.651-4.469s2.58-4.77,5.491-4.77A7.725,7.725,0,0,1,641.6,71.5l-1.71,2.1a5.757,5.757,0,0,0-3.66-1.62c-1.079,0-2.1.54-2.1,1.74,0,1.38,1.26,1.77,2.67,2.19,2.191.69,4.621,1.56,4.621,4.65,0,3.119-2.311,4.8-5.67,4.8a9.989,9.989,0,0,1-5.491-1.53Z"/>
    <path d="M650.149,69.365c2.221,0,6.54.69,6.54,7.59,0,5.759-3.06,8.4-7.019,8.4-4.02,0-6.51-2.58-6.51-8.009C643.16,71.105,647.059,69.365,650.149,69.365Zm2.88,8.07c0-3.36-.779-5.43-3.06-5.43-2.189,0-3.179,2.04-3.179,4.92,0,2.789.45,5.789,3.12,5.789C652.1,82.714,653.029,80.555,653.029,77.435Z"/>
    <path d="M663.139,64.085v15.9c0,1.86.39,2.55,1.62,2.55a5.025,5.025,0,0,0,1.89-.48l.78,2.4a7.465,7.465,0,0,1-3.57.9c-4.05,0-4.29-2.37-4.29-4.62V64.085Z"/>
    <path d="M681.229,69.815V82.384l.24,2.52h-3.06l-.21-1.77h-.12a5.1,5.1,0,0,1-4.35,2.19c-3.3,0-4.949-1.74-4.949-5.28V69.815h3.569v9.57c0,1.829.33,3.179,2.34,3.179a3.043,3.043,0,0,0,2.97-2.879v-9.87Z"/>
    <path d="M688.579,64.055v5.76h4.049v2.79h-4.049v7.62c0,1.829.719,2.369,1.95,2.369a3.994,3.994,0,0,0,2.039-.63l.9,2.31a7.121,7.121,0,0,1-3.809,1.05c-4.68,0-4.651-2.88-4.651-4.979V64.055Z"/>
    <path d="M706.218,73.535c0,4.62-5.729,5.219-8.489,5.25.12,1.949,1.23,3.839,3.779,3.839a6.473,6.473,0,0,0,3.781-1.319l1.11,2.369a8.719,8.719,0,0,1-5.28,1.68c-4.95,0-6.99-3.18-6.99-7.679,0-4.41,2.55-8.31,7.32-8.31C704.388,69.365,706.218,70.865,706.218,73.535Zm-4.979-1.62c-2.4,0-3.54,2.34-3.63,4.56,1.62.03,5.43-.48,5.43-2.79A1.662,1.662,0,0,0,701.239,71.915Z"/>
    <path d="M712.339,64.085v15.9c0,1.86.39,2.55,1.621,2.55a5.025,5.025,0,0,0,1.889-.48l.78,2.4a7.465,7.465,0,0,1-3.57.9c-4.05,0-4.29-2.37-4.29-4.62V64.085Z"/>
    <path d="M730.158,87.184c-.57,3.6-2.73,5.7-6.48,5.7-3.239,0-4.859-1.53-4.859-3.93a6.5,6.5,0,0,1,3.149-5.13c-2.46-.36-3.989-1.86-3.989-4.86V69.815h3.569v8.519c0,1.951.18,3.391,2.55,3.391a2.465,2.465,0,0,0,2.76-2.641V69.815h3.54v13.2A37.139,37.139,0,0,1,730.158,87.184ZM724.1,90.3c2.1,0,2.79-1.95,2.79-4.65v-2.52c-2.639,1.26-4.8,2.73-4.8,5.25A1.78,1.78,0,0,0,724.1,90.3Z"/>
    <path d="M740.419,84.9V72.425l-.241-2.61h3l.3,1.89a5.413,5.413,0,0,1,4.62-2.34c3,0,4.77,1.68,4.77,5.22V84.9H749.3V75.365c0-1.83-.33-3.24-2.25-3.24a3.046,3.046,0,0,0-3.059,3.03V84.9Z"/>
    <path d="M762.708,69.365c2.22,0,6.54.69,6.54,7.59,0,5.759-3.06,8.4-7.02,8.4-4.019,0-6.51-2.58-6.51-8.009C755.718,71.105,759.618,69.365,762.708,69.365Zm2.879,8.07c0-3.36-.779-5.43-3.059-5.43-2.19,0-3.18,2.04-3.18,4.92,0,2.789.45,5.789,3.12,5.789C764.658,82.714,765.587,80.555,765.587,77.435Z"/>
    <path d="M775.7,64.055v5.76h4.05v2.79H775.7v7.62c0,1.829.72,2.369,1.95,2.369a3.988,3.988,0,0,0,2.039-.63l.9,2.31a7.121,7.121,0,0,1-3.809,1.05c-4.68,0-4.65-2.88-4.65-4.979V64.055Z"/>
    <path d="M782.538,84.9V64.055h3.57v7.02a5.287,5.287,0,0,1,4.05-1.71c3.149,0,4.829,1.74,4.829,5.279V84.9h-3.569V75.275c0-1.74-.361-3.15-2.31-3.15a3.022,3.022,0,0,0-3,2.97V84.9Z"/>
    <path d="M800.477,63.485a1.987,1.987,0,0,1,2.07,2.01,1.964,1.964,0,0,1-2.07,1.98,1.93,1.93,0,0,1-2.069-1.98A1.987,1.987,0,0,1,800.477,63.485ZM798.708,84.9V69.815h3.569V84.9Z"/>
    <path d="M806,84.9V72.425l-.241-2.61h3l.3,1.89a5.413,5.413,0,0,1,4.62-2.34c3,0,4.77,1.68,4.77,5.22V84.9h-3.569V75.365c0-1.83-.331-3.24-2.25-3.24a3.046,3.046,0,0,0-3.06,3.03V84.9Z"/>
    <path d="M822.767,88.8c0-2.37,1.41-4.05,3.33-5.34-2.519-.36-4.8-2.19-4.8-6.449,0-5.1,3.21-7.65,7.41-7.65a16.259,16.259,0,0,1,5.82,1.11V81.9c0,1.051,0,2.76-.09,3.84-.36,4.41-2.4,7.08-6.63,7.08C824.477,92.824,822.767,91.294,822.767,88.8Zm8.19-16.469a7.041,7.041,0,0,0-2.31-.36c-2.49,0-3.78,1.98-3.78,4.8,0,2.25.33,4.77,3.21,4.77a2.787,2.787,0,0,0,2.88-2.94Zm-2.85,17.879c2.34,0,2.88-2.22,2.88-5.31V82.955c-3.21,1.619-4.95,3.329-4.95,5.279A1.814,1.814,0,0,0,828.107,90.214Z"/>
    <path d="M839.537,81.274a2.041,2.041,0,1,1-2.04,2.04A1.925,1.925,0,0,1,839.537,81.274Z"/>
  </g>
  <polygon points="354.787 553.677 354.787 575.677 376.787 575.677 354.787 553.677"/>
  <line x1="85.287" y1="141.177" x2="103.787" y2="141.177" style="fill: none;stroke: #df5b57;stroke-miterlimit: 10;stroke-width: 8px"/>
  <g>
    <path d="M440.937,146.872l-4.725-13.963h1.743l3.926,12.01,3.884-12.01h1.68l-4.724,13.963Z"/>
    <path d="M450.176,132.363a1.1,1.1,0,0,1-.02,2.205,1.047,1.047,0,0,1-1.071-1.113A1.071,1.071,0,0,1,450.176,132.363Zm-.819,14.509V136.436H451v10.436Z"/>
    <path d="M453.768,144.982a5.164,5.164,0,0,0,2.856.924c1.175,0,2.079-.546,2.079-1.785,0-1.218-.946-1.6-2.163-1.89-1.68-.4-3.171-.923-3.171-3,0-2.1,1.679-3.086,3.507-3.086a4.977,4.977,0,0,1,3.485,1.406l-.945.966a3.734,3.734,0,0,0-2.6-1.134A1.7,1.7,0,0,0,454.9,139c0,1.239,1.029,1.533,2.226,1.89,1.511.462,3.17.965,3.17,3.086,0,2.058-1.511,3.191-3.654,3.191a6.067,6.067,0,0,1-3.506-1.007Z"/>
    <path d="M463.407,132.363a1.1,1.1,0,1,1-.021,2.205,1.047,1.047,0,0,1-1.071-1.113A1.072,1.072,0,0,1,463.407,132.363Zm-.82,14.509V136.436h1.639v10.436Z"/>
    <path d="M468.929,132.279v4.157h2.982v1.407h-2.982v6.215c0,1.386.546,1.827,1.533,1.827a3.05,3.05,0,0,0,1.6-.5l.483,1.092a4.442,4.442,0,0,1-2.373.692c-2.792,0-2.876-1.616-2.876-3.149V132.279Z"/>
    <path d="M477.938,136.143c1.448,0,4.3.461,4.3,5.207,0,4.094-2.036,5.815-4.66,5.815-2.667,0-4.305-1.8-4.305-5.584C473.277,137.234,475.859,136.143,477.938,136.143Zm2.646,5.563c0-2.519-.735-4.283-2.772-4.283-1.994,0-2.9,1.68-2.9,3.948,0,2.078.42,4.535,2.813,4.535C479.722,145.906,480.584,144,480.584,141.706Z"/>
    <path d="M486.422,146.872h-1.616v-9.008l-.127-1.428h1.408l.188,1.512a2.739,2.739,0,0,1,2.625-1.805,3.226,3.226,0,0,1,1.658.4l-.5,1.449a2.979,2.979,0,0,0-1.364-.4,2.475,2.475,0,0,0-2.268,2.625Z"/>
    <path d="M491.756,144.982a5.164,5.164,0,0,0,2.856.924c1.176,0,2.079-.546,2.079-1.785,0-1.218-.945-1.6-2.163-1.89-1.68-.4-3.171-.923-3.171-3,0-2.1,1.68-3.086,3.507-3.086a4.977,4.977,0,0,1,3.485,1.406l-.945.966a3.731,3.731,0,0,0-2.6-1.134A1.7,1.7,0,0,0,492.89,139c0,1.239,1.03,1.533,2.226,1.89,1.512.462,3.171.965,3.171,3.086,0,2.058-1.512,3.191-3.655,3.191a6.06,6.06,0,0,1-3.5-1.007Z"/>
    <path d="M512.628,136.436a15.8,15.8,0,0,1,.694,4.452c0,3.842-1.554,6.277-4.809,6.277-2.224,0-3.359-.944-3.359-3.527v-7.2h1.639v6.593c0,1.533.084,2.814,1.91,2.814,2.267,0,3-2.436,3-4.724a17.454,17.454,0,0,0-.713-4.683Z"/>
    <path d="M516.808,132.363a1.1,1.1,0,0,1-.021,2.205,1.049,1.049,0,0,1-1.071-1.113A1.072,1.072,0,0,1,516.808,132.363Zm-.818,14.509V136.436h1.637v10.436Z"/>
    <path d="M528.84,145.045l.168,1.827h-1.469l-.126-1.239-.064-.021a3.5,3.5,0,0,1-3.064,1.553c-2.919,0-4.158-2.015-4.158-5.06,0-3.716,1.785-5.962,5.27-5.962a11.08,11.08,0,0,1,3.443.671Zm-1.616-7.265a5.94,5.94,0,0,0-2.1-.357c-2.52,0-3.381,2.058-3.381,4.745,0,1.827.546,3.78,2.75,3.78a2.512,2.512,0,0,0,2.73-2.394Z"/>
    <path d="M538.166,151.281h-1.639V136.772a14.126,14.126,0,0,1,3.8-.629c3.317,0,4.765,1.847,4.765,5.4,0,3.653-1.616,5.626-4.24,5.626a4.838,4.838,0,0,1-2.687-.8Zm1.972-13.753a6.138,6.138,0,0,0-1.972.336v7.013a4.17,4.17,0,0,0,2.56.924c1.975,0,2.731-1.932,2.731-4.053C543.457,139.313,542.826,137.528,540.138,137.528Z"/>
    <path d="M555.8,145.045l.168,1.827H554.5l-.126-1.239-.064-.021a3.5,3.5,0,0,1-3.064,1.553c-2.919,0-4.159-2.015-4.159-5.06,0-3.716,1.786-5.962,5.271-5.962a11.08,11.08,0,0,1,3.443.671Zm-1.616-7.265a5.942,5.942,0,0,0-2.1-.357c-2.519,0-3.38,2.058-3.38,4.745,0,1.827.546,3.78,2.75,3.78a2.512,2.512,0,0,0,2.73-2.394Z"/>
    <path d="M559.731,132.363a1.1,1.1,0,0,1-.02,2.205,1.048,1.048,0,0,1-1.072-1.113A1.072,1.072,0,0,1,559.731,132.363Zm-.819,14.509V136.436h1.638v10.436Z"/>
    <path d="M570.146,136.52v-4.241h1.617v12.7l.168,1.89h-1.449l-.146-1.26-.084-.021a3.651,3.651,0,0,1-3.086,1.574c-3.067,0-4.1-2.414-4.1-5.207,0-3.527,1.764-5.815,4.913-5.815A6.3,6.3,0,0,1,570.146,136.52Zm0,1.386a4.9,4.9,0,0,0-2.225-.5c-2.289,0-3.234,1.911-3.234,4.367,0,2.163.588,4.137,2.731,4.137a2.513,2.513,0,0,0,2.728-2.247Z"/>
    <path d="M581.109,132.279v11.653c0,1.407.273,1.932,1.322,1.932a3.24,3.24,0,0,0,1.407-.357l.378,1.134a4.223,4.223,0,0,1-2.141.524c-2.456,0-2.583-1.616-2.583-3V132.279Z"/>
    <path d="M586.653,132.363a1.1,1.1,0,0,1-.021,2.205,1.048,1.048,0,0,1-1.071-1.113A1.072,1.072,0,0,1,586.653,132.363Zm-.819,14.509V136.436h1.638v10.436Z"/>
    <path d="M590.538,146.872v-8.861l-.105-1.575h1.406l.19,1.512a4,4,0,0,1,3.38-1.805c2.163,0,3.339,1.217,3.339,3.611v7.118h-1.639v-6.614c0-1.554-.336-2.814-2.1-2.814a2.8,2.8,0,0,0-2.834,2.583v6.845Z"/>
    <path d="M607.043,142.588l2.6,4.284h-1.91l-2.247-3.759a10.005,10.005,0,0,1-2.058.21v3.549h-1.637V132.279h1.637v6.8a4.278,4.278,0,0,1,3.78-2.939,2.317,2.317,0,0,1,2.477,2.5A4.46,4.46,0,0,1,607.043,142.588Zm-.168-5.081c-1.6,0-3.129,2.52-3.444,4.619,2.856.063,4.619-1.238,4.619-3.317A1.141,1.141,0,0,0,606.875,137.507Z"/>
  </g>
  <line x1="387.381" y1="141.177" x2="405.881" y2="141.177" style="fill: none;stroke: #9ececa;stroke-miterlimit: 10;stroke-width: 8px"/>
  <g>
    <path d="M138.843,146.872l-4.725-13.963h1.742l3.927,12.01,3.884-12.01h1.68l-4.724,13.963Z"/>
    <path d="M148.082,132.363a1.1,1.1,0,0,1-.02,2.205,1.048,1.048,0,0,1-1.072-1.113A1.072,1.072,0,0,1,148.082,132.363Zm-.819,14.509V136.436H148.9v10.436Z"/>
    <path d="M151.674,144.982a5.161,5.161,0,0,0,2.855.924c1.176,0,2.079-.546,2.079-1.785,0-1.218-.945-1.6-2.163-1.89-1.679-.4-3.171-.923-3.171-3,0-2.1,1.68-3.086,3.507-3.086a4.978,4.978,0,0,1,3.486,1.406l-.946.966a3.73,3.73,0,0,0-2.6-1.134,1.7,1.7,0,0,0-1.91,1.617c0,1.239,1.029,1.533,2.225,1.89,1.512.462,3.171.965,3.171,3.086,0,2.058-1.512,3.191-3.654,3.191a6.064,6.064,0,0,1-3.506-1.007Z"/>
    <path d="M161.313,132.363a1.1,1.1,0,0,1-.021,2.205,1.047,1.047,0,0,1-1.071-1.113A1.072,1.072,0,0,1,161.313,132.363Zm-.82,14.509V136.436h1.639v10.436Z"/>
    <path d="M166.835,132.279v4.157h2.981v1.407h-2.981v6.215c0,1.386.546,1.827,1.533,1.827a3.05,3.05,0,0,0,1.6-.5l.482,1.092a4.437,4.437,0,0,1-2.373.692c-2.792,0-2.876-1.616-2.876-3.149V132.279Z"/>
    <path d="M175.844,136.143c1.448,0,4.3.461,4.3,5.207,0,4.094-2.037,5.815-4.661,5.815-2.667,0-4.3-1.8-4.3-5.584C171.183,137.234,173.765,136.143,175.844,136.143Zm2.645,5.563c0-2.519-.734-4.283-2.771-4.283-1.994,0-2.9,1.68-2.9,3.948,0,2.078.42,4.535,2.814,4.535C177.628,145.906,178.489,144,178.489,141.706Z"/>
    <path d="M184.328,146.872h-1.616v-9.008l-.127-1.428h1.407l.189,1.512a2.738,2.738,0,0,1,2.625-1.805,3.226,3.226,0,0,1,1.658.4l-.5,1.449a2.979,2.979,0,0,0-1.364-.4,2.475,2.475,0,0,0-2.268,2.625Z"/>
    <path d="M189.662,144.982a5.164,5.164,0,0,0,2.856.924c1.175,0,2.079-.546,2.079-1.785,0-1.218-.946-1.6-2.163-1.89-1.68-.4-3.171-.923-3.171-3,0-2.1,1.679-3.086,3.507-3.086a4.977,4.977,0,0,1,3.485,1.406l-.945.966a3.734,3.734,0,0,0-2.6-1.134A1.7,1.7,0,0,0,190.8,139c0,1.239,1.029,1.533,2.226,1.89,1.511.462,3.17.965,3.17,3.086,0,2.058-1.511,3.191-3.654,3.191a6.067,6.067,0,0,1-3.506-1.007Z"/>
    <path d="M210.534,136.436a15.8,15.8,0,0,1,.694,4.452c0,3.842-1.554,6.277-4.809,6.277-2.225,0-3.359-.944-3.359-3.527v-7.2H204.7v6.593c0,1.533.084,2.814,1.91,2.814,2.268,0,3-2.436,3-4.724a17.5,17.5,0,0,0-.712-4.683Z"/>
    <path d="M214.714,132.363a1.1,1.1,0,1,1-.022,2.205,1.048,1.048,0,0,1-1.07-1.113A1.072,1.072,0,0,1,214.714,132.363Zm-.818,14.509V136.436h1.636v10.436Z"/>
    <path d="M226.746,145.045l.168,1.827h-1.47l-.126-1.239-.063-.021a3.5,3.5,0,0,1-3.064,1.553c-2.919,0-4.159-2.015-4.159-5.06,0-3.716,1.785-5.962,5.271-5.962a11.085,11.085,0,0,1,3.443.671Zm-1.616-7.265a5.942,5.942,0,0,0-2.1-.357c-2.519,0-3.381,2.058-3.381,4.745,0,1.827.546,3.78,2.75,3.78a2.512,2.512,0,0,0,2.731-2.394Z"/>
    <path d="M242.622,136.436v8.9l.147,1.533h-1.45l-.168-1.428h-.041a3.827,3.827,0,0,1-3.3,1.721c-2.247,0-3.381-1.175-3.381-3.59v-7.139h1.638v6.677c0,1.575.315,2.772,2.162,2.772a2.824,2.824,0,0,0,2.772-2.52v-6.929Z"/>
    <path d="M245.731,146.872v-8.861l-.1-1.575h1.406l.19,1.512a4,4,0,0,1,3.38-1.805c2.163,0,3.339,1.217,3.339,3.611v7.118H252.3v-6.614c0-1.554-.336-2.814-2.1-2.814a2.8,2.8,0,0,0-2.834,2.583v6.845Z"/>
    <path d="M258.6,151.281h-1.637V136.772a14.1,14.1,0,0,1,3.8-.629c3.317,0,4.766,1.847,4.766,5.4,0,3.653-1.617,5.626-4.242,5.626a4.843,4.843,0,0,1-2.687-.8Zm1.974-13.753a6.15,6.15,0,0,0-1.974.336v7.013a4.176,4.176,0,0,0,2.562.924c1.973,0,2.729-1.932,2.729-4.053C263.894,139.313,263.265,137.528,260.577,137.528Z"/>
    <path d="M276.241,145.045l.168,1.827H274.94l-.126-1.239-.063-.021a3.506,3.506,0,0,1-3.066,1.553c-2.918,0-4.157-2.015-4.157-5.06,0-3.716,1.785-5.962,5.27-5.962a11.085,11.085,0,0,1,3.443.671Zm-1.617-7.265a5.923,5.923,0,0,0-2.1-.357c-2.519,0-3.379,2.058-3.379,4.745,0,1.827.546,3.78,2.751,3.78a2.51,2.51,0,0,0,2.728-2.394Z"/>
    <path d="M280.17,132.363a1.1,1.1,0,0,1-.021,2.205,1.048,1.048,0,0,1-1.071-1.113A1.072,1.072,0,0,1,280.17,132.363Zm-.819,14.509V136.436h1.638v10.436Z"/>
    <path d="M290.585,136.52v-4.241H292.2v12.7l.168,1.89h-1.448l-.147-1.26-.084-.021a3.652,3.652,0,0,1-3.087,1.574c-3.065,0-4.094-2.414-4.094-5.207,0-3.527,1.764-5.815,4.913-5.815A6.3,6.3,0,0,1,290.585,136.52Zm0,1.386a4.9,4.9,0,0,0-2.227-.5c-2.288,0-3.232,1.911-3.232,4.367,0,2.163.588,4.137,2.729,4.137a2.514,2.514,0,0,0,2.73-2.247Z"/>
    <path d="M301.547,132.279v11.653c0,1.407.272,1.932,1.323,1.932a3.24,3.24,0,0,0,1.406-.357l.378,1.134a4.218,4.218,0,0,1-2.141.524c-2.457,0-2.582-1.616-2.582-3V132.279Z"/>
    <path d="M307.091,132.363a1.1,1.1,0,1,1-.022,2.205,1.048,1.048,0,0,1-1.07-1.113A1.072,1.072,0,0,1,307.091,132.363Zm-.818,14.509V136.436h1.636v10.436Z"/>
    <path d="M310.976,146.872v-8.861l-.106-1.575h1.407l.189,1.512a4,4,0,0,1,3.381-1.805c2.162,0,3.338,1.217,3.338,3.611v7.118h-1.637v-6.614c0-1.554-.336-2.814-2.1-2.814a2.8,2.8,0,0,0-2.835,2.583v6.845Z"/>
    <path d="M327.481,142.588l2.6,4.284h-1.911l-2.246-3.759a10.02,10.02,0,0,1-2.058.21v3.549h-1.637V132.279h1.637v6.8a4.278,4.278,0,0,1,3.78-2.939,2.318,2.318,0,0,1,2.477,2.5A4.461,4.461,0,0,1,327.481,142.588Zm-.168-5.081c-1.6,0-3.128,2.52-3.444,4.619,2.856.063,4.619-1.238,4.619-3.317A1.141,1.141,0,0,0,327.313,137.507Z"/>
  </g>
  <line x1="355.287" y1="480.177" x2="355.287" y2="197.177" style="fill: none;stroke: #000;stroke-linejoin: round;stroke-width: 2.787038098887802px;stroke-dasharray: 8.361114501953125,5.574076175689697;opacity: 0.3"/>
</svg>
